<svg xmlns="http://www.w3.org/2000/svg" viewBox="0 0 635 635"><defs><style>.cls-1{fill:#f6d738;}.cls-2{fill:#f3cc30;}.cls-3{fill:#edbd31;}.cls-4{fill:#f7db5e;}.cls-5{fill:#d49a34;}</style></defs><title>Asset 1</title><g id="Layer_2" data-name="Layer 2"><g id="Object"><circle class="cls-1" cx="317.5" cy="317.5" r="317.5"/><circle class="cls-2" cx="317.5" cy="317.5" r="269.46"/><path class="cls-3" d="M458.48,87.52a268.22,268.22,0,0,1,42.39,145.14c0,148.82-120.64,269.46-269.46,269.46a268.22,268.22,0,0,1-141-39.8A269.24,269.24,0,0,0,317.5,586.64C466.32,586.64,587,466,587,317.18A269.26,269.26,0,0,0,458.48,87.52Z"/><path class="cls-4" d="M95.24,342.16c0-131.37,106.5-237.87,237.87-237.87a237.46,237.46,0,0,1,188.55,92.87A237.77,237.77,0,0,0,315.4,77.85C184,77.85,77.54,184.34,77.54,315.71a236.84,236.84,0,0,0,49.31,145A236.82,236.82,0,0,1,95.24,342.16Z"/><g id="LkW7Tg.tif"><path class="cls-5" d="M268.85,491.12q0-19.39,0-38.8c0-3.72,0-3.73-3.65-3.73H195.33c-4,0-4-.05-4-4q0-14.55,0-29.1c0-3.57.23-3.76,3.77-3.78,5.08,0,10.15,0,15.22-.44,7.22-.64,10.84-4.17,11.49-11.41.4-4.33.43-8.67.43-13q0-69.69,0-139.4c0-4.06-.21-8.12-.46-12.17-.39-6.39-4.72-10.58-11.17-11.23a128.39,128.39,0,0,0-16.05-.46c-2.41,0-3.27-.82-3.25-3.21q.12-15.24,0-30.48c0-2.62,1-3.27,3.49-3.26,23.37.07,46.74,0,70.11,0,4,0,4,0,4-4,0-11.73.08-23.47,0-35.2,0-2.78.87-3.66,3.67-3.62q15.09.23,30.2,0c2.9,0,3.58,1,3.56,3.69-.12,11.92,0,23.83-.11,35.75,0,2.72.87,3.5,3.49,3.41,5.26-.17,10.53,0,15.8,0,3.71,0,3.72,0,3.73-3.62V148.42c0-4.47,0-4.47,4.6-4.47h28.54c4.18,0,4.19,0,4.2,4.09,0,12.28.08,24.57-.06,36.85,0,2.75,1,3.71,3.58,4,17.11,2,32.6,7.81,45.62,19.4a53.93,53.93,0,0,1,14,20c7.13,17.3,6.15,34.3-2.91,50.65-6.56,11.85-16.48,20.21-28.51,26.21-3.51,1.75-7.2,3.12-10.74,5.2,4.42,1.43,8.87,2.79,13.26,4.3,9.75,3.34,18.57,8.34,25.74,15.78a59.13,59.13,0,0,1,16.57,34c3.42,25.88-6,46.55-25.88,62.67-13.63,11.06-29.81,16.38-47,18.62-2.77.36-3.77,1.24-3.75,4.11.11,13.76,0,27.52,0,41.29H329.27c0-1.2-.15-2.4-.15-3.59,0-11.82-.1-23.64.05-35.46,0-2.88-.9-3.66-3.64-3.54-4.7.2-9.42,0-14.13.06-5.81,0-5.22-.62-5.24,5.14q-.11,18.69-.17,37.39Zm18.71-125.79h.1c0,7.29-.09,14.59,0,21.88.07,4.24-.31,8.51.59,12.7.85,4,2.61,5.42,6.64,5.76a268.41,268.41,0,0,0,29.34.4c8.1-.18,16.2-.7,24.13-2.87,25.34-6.94,33.71-36.33,21.45-55.45-5.73-8.92-14.93-12.56-24.92-14.4C339,332.26,333,332.18,327,331.89c-12.46-.6-24.92-.11-37.38-.29-1.49,0-2.1.53-2.09,2.15C287.59,344.27,287.56,354.8,287.56,365.33ZM287.67,261c0,9.33.1,18.65-.06,28,0,2.84.93,3.66,3.68,3.59,6.56-.17,13.12-.14,19.67,0a165.66,165.66,0,0,0,31.69-2.24c15.33-2.7,25-11.61,27.19-25.55,2.08-13.46-3.68-26.1-16.88-31.16-8.22-3.15-16.94-3.65-25.59-3.87-12.08-.32-24.18-.05-36.28-.19-2.69,0-3.5.88-3.47,3.51C287.74,242.39,287.67,251.72,287.67,261Z"/></g></g></g></svg>